<svg width="150" height="53" viewBox="0 0 150 53" fill="none" xmlns="http://www.w3.org/2000/svg">
<path d="M1.91415 40.3242V48.9464H0.808594V40.3242H1.91415Z" fill="white"/>
<path d="M6.00781 40.4479C6.67587 40.3368 7.46753 40.2637 8.32587 40.2637C9.88698 40.2637 11.005 40.6377 11.7425 41.3365C12.4967 42.0283 12.937 43.0168 12.937 44.392C12.937 45.7671 12.505 46.9258 11.7245 47.7146C10.9273 48.509 9.62309 48.9449 7.98976 48.9449C7.2092 48.9449 6.56198 48.914 6.00781 48.8507V40.4479ZM7.10226 48.0014C7.37865 48.0464 7.78142 48.0534 8.19809 48.0534C10.5328 48.0591 11.7911 46.743 11.7911 44.4342C11.8036 42.4164 10.6773 41.1439 8.38004 41.1439C7.81615 41.1439 7.39392 41.1973 7.10365 41.2564V48.0014H7.10226Z" fill="white"/>
<path d="M20.9343 44.9039H17.6329V48.0184H21.326V48.9464H16.5273V40.3242H21.1315V41.2522H17.6329V43.9829H20.9343V44.9053V44.9039Z" fill="white"/>
<path d="M25.9903 40.3242V43.9351H30.107V40.3242H31.2125V48.9464H30.107V44.9011H25.9903V48.9464H24.8848V40.3242H25.9903Z" fill="white"/>
<path d="M35.2793 40.4944C35.8057 40.3987 36.496 40.3242 37.3793 40.3242C38.4515 40.3242 39.2432 40.5745 39.7487 41.0357C40.2071 41.4449 40.4918 42.065 40.4918 42.8271C40.4918 43.5892 40.264 44.2149 39.8349 44.6578C39.2529 45.2835 38.3182 45.5943 37.2529 45.5943C36.9224 45.5943 36.6224 45.5816 36.3696 45.5141V48.9464H35.2793V40.4944ZM36.3696 44.6142C36.6126 44.6859 36.9168 44.7098 37.2751 44.7098C38.5987 44.7098 39.3987 44.0518 39.3987 42.8833C39.3987 41.7149 38.6001 41.1974 37.4029 41.1974C36.9224 41.1974 36.5626 41.2424 36.371 41.2846V44.6142H36.3696Z" fill="white"/>
<path d="M44.4505 46.2369L43.57 48.9464H42.4297L45.3269 40.3242H46.6491L49.5575 48.9464H48.3811L47.4686 46.2369H44.4491H44.4505ZM47.2477 45.3665L46.4047 42.8847C46.22 42.3209 46.0922 41.8062 45.9658 41.3113H45.9366C45.8144 41.8147 45.6811 42.342 45.5144 42.8693L44.6755 45.3651H47.2491L47.2477 45.3665Z" fill="white"/>
<path d="M52.9584 40.5084C53.5126 40.3959 54.307 40.3242 55.057 40.3242C56.2154 40.3242 56.9793 40.5478 57.5056 41.0287C57.9237 41.4027 58.1681 41.9862 58.1681 42.6555C58.1681 43.779 57.4598 44.527 56.5751 44.835V44.8659C57.2195 45.0951 57.6084 45.711 57.814 46.5982C58.0918 47.7934 58.2918 48.6118 58.464 48.9464H57.332C57.1987 48.6989 57.0084 47.9692 56.7765 46.8977C56.5251 45.7264 56.0681 45.2723 55.0806 45.2385H54.0473V48.9464H52.957V40.5084H52.9584ZM54.0487 44.4033H55.164C56.332 44.4033 57.0723 43.7593 57.0723 42.7793C57.0723 41.6685 56.2806 41.1848 55.1293 41.1833C54.6001 41.1833 54.2334 41.2326 54.0487 41.2804V44.4033Z" fill="white"/>
<path d="M61.9297 40.507C62.5936 40.3973 63.3797 40.3242 64.2325 40.3242C65.7825 40.3242 66.8936 40.6968 67.6269 41.39C68.3755 42.0762 68.813 43.0591 68.813 44.4244C68.813 45.7897 68.3839 46.9399 67.6075 47.7245C66.8158 48.5133 65.52 48.9464 63.8977 48.9464C63.1227 48.9464 62.4797 48.9155 61.9297 48.8522V40.507ZM63.0158 48.0099C63.2908 48.0549 63.6908 48.062 64.1033 48.062C66.4227 48.0676 67.6714 46.7599 67.6714 44.4666C67.6839 42.4629 66.5658 41.1988 64.2839 41.1988C63.7241 41.1988 63.3047 41.2522 63.0158 41.3113V48.0114V48.0099Z" fill="white"/>
<path d="M73.6302 46.2369L72.7496 48.9464H71.6094L74.5066 40.3242H75.8288L78.7372 48.9464H77.5608L76.6483 46.2369H73.6288H73.6302ZM76.4274 45.3665L75.5844 42.8847C75.3997 42.3209 75.2719 41.8062 75.1455 41.3113H75.1163C74.9941 41.8147 74.8608 42.342 74.6941 42.8693L73.8552 45.3651H76.4288L76.4274 45.3665Z" fill="white"/>
<path d="M81.5658 48.2954L86.2881 41.2958V41.2565H81.9658V40.3242H87.7158V41.0062L83.02 47.9734V48.0142H87.7783V48.9464H81.5645V48.2954H81.5658Z" fill="white"/>
<path d="M92.6497 46.2369L91.7692 48.9464H90.6289L93.5261 40.3242H94.8483L97.7567 48.9464H96.5803L95.6678 46.2369H92.6483H92.6497ZM95.447 45.3665L94.6039 42.8847C94.4192 42.3209 94.2914 41.8062 94.165 41.3113H94.1359C94.0136 41.8147 93.8803 42.342 93.7136 42.8693L92.8747 45.3651H95.4483L95.447 45.3665Z" fill="white"/>
<path d="M101.135 48.9464V40.3242H102.344L105.072 44.6817C105.694 45.6927 106.189 46.5996 106.592 47.4897L106.619 47.4756C106.519 46.3254 106.5 45.2737 106.5 43.9379V40.3242H107.536V48.9464H106.419L103.713 44.5763C103.126 43.6103 102.553 42.626 102.128 41.6895L102.09 41.7022C102.156 42.7947 102.171 43.8338 102.171 45.2596V48.9464H101.135Z" fill="white"/>
<path d="M118.896 48.7489C118.705 48.8474 118.309 48.9472 117.807 48.9472C116.646 48.9472 115.775 48.2034 115.775 46.8338C115.775 45.4643 116.648 44.6445 117.927 44.6445C118.437 44.6445 118.764 44.7542 118.905 44.8287L118.774 45.2674C118.574 45.1718 118.288 45.0959 117.945 45.0959C116.977 45.0959 116.338 45.7216 116.338 46.8169C116.338 47.8378 116.918 48.4902 117.917 48.4902C118.245 48.4902 118.574 48.4241 118.789 48.3187L118.896 48.7489Z" fill="white"/>
<path d="M124.146 46.7542C124.146 48.1828 123.286 48.9463 122.237 48.9463C121.189 48.9463 120.389 48.0914 120.389 46.833C120.389 45.5745 121.196 44.6465 122.293 44.6465C123.39 44.6465 124.146 45.5169 124.146 46.7542ZM120.95 46.8203C120.95 47.7118 121.428 48.509 122.265 48.509C123.103 48.509 123.583 47.7244 123.583 46.7781C123.583 45.9485 123.155 45.0838 122.272 45.0838C121.389 45.0838 120.95 45.9092 120.95 46.8203Z" fill="white"/>
<path d="M129.574 47.0579C129.541 46.4604 129.503 45.7348 129.506 45.2033H129.489C129.343 45.7025 129.167 46.2438 128.954 46.833L128.204 48.9182H127.791L127.099 46.8709C126.896 46.2635 126.732 45.7123 126.613 45.2033H126.598C126.582 45.739 126.554 46.4547 126.514 47.1001L126.402 48.9463H125.881L126.177 44.6465H126.878L127.602 46.7275C127.777 47.2534 127.92 47.7272 128.029 48.1758H128.046C128.157 47.7399 128.306 47.266 128.495 46.7275L129.253 44.6465H129.954L130.218 48.9463H129.679L129.577 47.0579H129.574Z" fill="white"/>
<path d="M132.143 44.7303C132.405 44.6825 132.75 44.6445 133.19 44.6445C133.725 44.6445 134.119 44.7697 134.372 44.9989C134.601 45.2028 134.743 45.5121 134.743 45.8917C134.743 46.2714 134.629 46.5835 134.415 46.8043C134.125 47.1164 133.659 47.2711 133.127 47.2711C132.962 47.2711 132.813 47.2641 132.687 47.2317V48.943H132.143V44.7289V44.7303ZM132.687 46.7846C132.808 46.8198 132.959 46.8324 133.138 46.8324C133.798 46.8324 134.197 46.5048 134.197 45.9213C134.197 45.3377 133.798 45.0804 133.202 45.0804C132.962 45.0804 132.784 45.1029 132.687 45.124V46.7846Z" fill="white"/>
<path d="M136.727 47.5931L136.288 48.9444H135.719L137.163 44.6445H137.823L139.273 48.9444H138.687L138.231 47.5931H136.726H136.727ZM138.122 47.1586L137.701 45.9213C137.609 45.64 137.545 45.3841 137.483 45.1367H137.467C137.406 45.3884 137.341 45.6499 137.256 45.9142L136.838 47.1586H138.122Z" fill="white"/>
<path d="M140.971 48.9458V44.6459H141.573L142.935 46.8184C143.246 47.3231 143.492 47.7745 143.693 48.2188L143.707 48.2118C143.657 47.6381 143.647 47.1136 143.647 46.4471V44.6445H144.164V48.9444H143.607L142.257 46.7649C141.964 46.2826 141.679 45.7933 141.467 45.3251L141.447 45.3321C141.48 45.8763 141.487 46.3951 141.487 47.1052V48.9444H140.971V48.9458Z" fill="white"/>
<path d="M147.218 48.9444V47.1221L145.871 44.6445H146.499L147.095 45.8327C147.256 46.1589 147.386 46.419 147.517 46.7199H147.529C147.646 46.4373 147.792 46.1561 147.956 45.8299L148.568 44.6459H149.189L147.768 47.115V48.9458H147.217L147.218 48.9444Z" fill="white"/>
<path d="M50.8489 18.8724L44.4017 14.7329L42.2072 10.1912L44.135 7.7685L49.135 4.9085V4.05078H7.62248C3.85859 4.05078 0.808594 7.13857 0.808594 10.9491V24.7443C0.808594 28.5534 3.85859 31.6412 7.62248 31.6412H46.503V31.457L49.9517 28.5295L53.5739 25.4333L50.8489 18.8724ZM16.8391 10.142C17.128 10.2671 17.4197 10.3754 17.7128 10.4682C17.7128 10.4682 17.7141 10.4682 17.7141 10.4668C17.8239 10.502 17.935 10.5343 18.0461 10.5638C18.278 10.6271 18.5114 10.6791 18.7447 10.7227L18.7739 10.7269L18.7878 10.7297C18.8669 10.7438 18.9475 10.7565 19.0266 10.7691H19.0336L20.2405 10.9646L22.203 11.2809C22.203 11.2809 22.2044 11.2823 22.2058 11.2823H22.2155L22.3766 11.3105C23.0197 11.4187 23.66 11.6071 24.285 11.8785C24.5655 12.0009 24.8364 12.1358 25.0961 12.2835C25.5044 12.5534 25.8822 12.8572 26.2267 13.189C26.2975 13.2551 26.3655 13.324 26.4322 13.3929C26.4989 13.473 26.5614 13.5546 26.6239 13.6361C26.6308 13.646 26.6392 13.6558 26.6461 13.6657C27.6989 15.0718 28.2975 16.7886 28.3405 18.5617C27.803 17.8938 27.1725 17.2934 26.4558 16.783C25.9267 16.4062 25.3517 16.0785 24.7322 15.81C24.2475 15.6005 23.7558 15.4331 23.2586 15.3094C22.6711 15.1632 22.0794 15.076 21.4905 15.0451C21.2905 15.0338 21.0919 15.031 20.8933 15.0338C20.7114 15.0352 20.5294 15.0366 20.3489 15.0197C19.5336 14.9424 18.7155 14.7371 17.9225 14.3926C17.4489 14.1873 17.0044 13.9399 16.5919 13.6586C16.31 13.4688 16.0447 13.2607 15.7947 13.0386C15.7128 12.9668 15.6322 12.8937 15.5544 12.8178C15.4169 12.6856 15.2836 12.5492 15.1558 12.4072C15.0725 12.3004 14.9919 12.1921 14.9155 12.081C14.7864 11.8996 14.6669 11.7112 14.5544 11.52C14.26 11.018 14.0183 10.4837 13.8378 9.92967C13.5794 9.15069 13.4391 8.33094 13.4239 7.49994C14.2975 8.61919 15.4516 9.54018 16.8378 10.142H16.8391ZM14.8266 16.0378C15.1878 16.1165 15.5475 16.177 15.9058 16.2163H15.9072C16.0419 16.2318 16.1767 16.2445 16.31 16.2543H16.3114C16.5919 16.274 16.8725 16.281 17.1516 16.2782H17.203C17.2975 16.2768 17.3933 16.2726 17.4878 16.2684H17.4961L18.9308 16.222L21.2655 16.1474H21.2794L21.4725 16.1404C22.2378 16.1221 23.0183 16.1952 23.7989 16.3682C24.1489 16.4455 24.4905 16.5411 24.8225 16.6536C25.353 16.873 25.8544 17.1373 26.3267 17.4439C26.4225 17.5043 26.5155 17.5676 26.6086 17.6323C26.7017 17.7096 26.7919 17.7898 26.8808 17.8713C26.8933 17.8797 26.903 17.8896 26.9142 17.8994C28.4364 19.2858 29.503 21.1306 29.9419 23.1681C29.1766 22.517 28.3155 21.9659 27.378 21.5384C26.685 21.222 25.9489 20.9746 25.1766 20.803C24.5711 20.6694 23.9669 20.5879 23.3669 20.5569C22.6572 20.519 21.9544 20.5513 21.2683 20.6483C21.0947 20.6723 20.9211 20.7018 20.7489 20.7341C20.1475 20.8494 19.5378 20.9268 18.9253 20.9197C18.2919 20.9113 17.6516 20.8396 17.01 20.6976C16.4183 20.5668 15.8503 20.3812 15.3128 20.1492C14.9475 19.9931 14.5947 19.8131 14.2586 19.6135C14.1475 19.5488 14.0391 19.4827 13.9322 19.4124C13.7447 19.2901 13.5614 19.1635 13.3822 19.0285C13.2628 18.9245 13.1461 18.8176 13.0336 18.7051C12.8447 18.5251 12.6655 18.3353 12.4947 18.1399C12.0433 17.6266 11.6489 17.0642 11.3183 16.4666C10.8503 15.6258 10.5086 14.7118 10.3086 13.7557C11.5614 14.851 13.0947 15.6539 14.8266 16.0378ZM29.1905 26.5216C28.3141 26.3346 27.4058 26.2362 26.4753 26.2362C25.7461 26.2362 25.0294 26.2966 24.3322 26.4133C23.5058 26.5511 22.7058 26.7663 21.9405 27.0531C21.7461 27.1262 21.5544 27.2022 21.3655 27.2837C20.7016 27.5706 20.0183 27.8138 19.3128 27.9615C18.5822 28.1133 17.828 28.1935 17.0544 28.1935C16.3405 28.1935 15.6419 28.1246 14.9669 27.9938C14.5058 27.908 14.0572 27.7899 13.6197 27.6465C13.4766 27.6001 13.335 27.5509 13.1947 27.4974C12.9475 27.406 12.7058 27.3048 12.4669 27.1965C12.303 27.1065 12.1419 27.0123 11.985 26.9139C11.7239 26.7536 11.4711 26.5821 11.2239 26.3993C10.578 25.924 9.98498 25.3785 9.45582 24.7738C8.70998 23.926 8.08915 22.9614 7.62248 21.9124C9.33498 22.8531 11.2989 23.3874 13.385 23.3874C13.8197 23.3874 14.2489 23.3649 14.6725 23.3199C14.8322 23.3017 14.9891 23.282 15.1461 23.2595H15.1475C15.4753 23.2117 15.8003 23.1498 16.1197 23.0753L16.16 23.0654L16.1794 23.0612C16.2878 23.0359 16.3961 23.0078 16.5044 22.9782L16.5128 22.9754L18.1516 22.5578L20.8197 21.8773C20.8197 21.8773 20.8225 21.8773 20.8239 21.8759H20.828L20.8364 21.8731L21.0558 21.8168C21.9322 21.6003 22.8475 21.4864 23.7891 21.4864C24.2114 21.4864 24.628 21.5103 25.0378 21.5539C25.7017 21.672 26.3461 21.8492 26.9628 22.0812C27.0891 22.1262 27.2128 22.1754 27.335 22.226C27.4614 22.2921 27.585 22.3596 27.7086 22.4313C27.7239 22.4397 27.7378 22.4467 27.753 22.4552C29.8475 23.663 31.5336 25.5134 32.5447 27.7449C31.5016 27.1923 30.3753 26.7761 29.1905 26.523V26.5216Z" fill="#FFBE00"/>
<path d="M40.4263 25.8945C41.9832 26.8028 44.3527 27.5987 46.8138 27.5987C49.8944 27.5987 51.618 26.1335 51.618 23.9456C51.618 21.9251 50.2791 20.7355 46.9346 19.5066C42.568 17.9388 39.7791 15.5667 39.7791 11.7337C39.7791 7.35089 43.3985 4.05078 49.1332 4.05078C51.9985 4.05078 54.093 4.66806 55.4694 5.37251L54.3138 9.31521C53.3582 8.80901 51.5166 8.0455 49.0332 8.0455C45.968 8.0455 44.668 9.69626 44.668 11.2697C44.668 13.3226 46.1971 14.2872 49.7235 15.6497C54.3152 17.4242 56.5221 19.7569 56.5221 23.6026C56.5221 27.9066 53.3194 31.6412 46.4999 31.6412C43.7027 31.6412 40.7999 30.8355 39.3555 29.9412L40.4235 25.8945H40.4263Z" fill="white"/>
<path d="M100.278 25.8945C101.835 26.8028 104.204 27.5987 106.665 27.5987C109.746 27.5987 111.47 26.1335 111.47 23.9456C111.47 21.9251 110.131 20.7355 106.786 19.5066C102.42 17.9388 99.6306 15.5667 99.6306 11.7337C99.6306 7.35089 103.25 4.05078 108.985 4.05078C111.85 4.05078 113.945 4.66806 115.321 5.37251L114.165 9.31521C113.21 8.80901 111.368 8.0455 108.885 8.0455C105.82 8.0455 104.52 9.69626 104.52 11.2697C104.52 13.3226 106.049 14.2872 109.575 15.6497C114.167 17.4242 116.374 19.7569 116.374 23.6026C116.374 27.9066 113.171 31.6412 106.351 31.6412C103.554 31.6412 100.651 30.8355 99.207 29.9412L100.275 25.8945H100.278Z" fill="white"/>
<path d="M87.0157 20.384C86.8504 16.821 86.6712 12.5366 86.6893 8.77808H86.5782C85.6782 12.1611 84.5393 15.8831 83.3629 19.3744L79.3615 31.3136H75.5323L71.9198 19.5375C70.8518 15.997 69.8782 12.2483 69.1629 8.77808H69.0726C68.9559 12.3889 68.7921 16.7985 68.5837 20.5527L67.9782 31.6412H63.3379L65.1504 4.05078H71.6921L75.2421 15.1322C76.2212 18.3916 77.0948 21.6664 77.7476 24.7415H77.8671C78.599 21.7268 79.5351 18.3578 80.5907 15.1111L84.3712 4.05219H90.8296L92.3948 31.6426H87.5434L87.0157 20.3868V20.384Z" fill="white"/>
<path d="M137.244 9.54846C137.247 10.6143 136.505 11.4945 135.276 11.4945C134.157 11.4945 133.405 10.6143 133.408 9.54846C133.405 8.47279 134.198 7.59961 135.332 7.59961C136.465 7.59961 137.236 8.45452 137.244 9.54846ZM133.787 31.6396V14.4164H136.865V31.6396H133.787Z" fill="white"/>
<path d="M140.793 19.7839C140.793 17.7507 140.743 16.017 140.652 14.4196H143.363L143.482 17.7985H143.591C144.386 15.4883 146.262 14.0273 148.329 14.0273C148.665 14.0273 148.907 14.0484 149.19 14.1159V17.0617C148.873 16.9942 148.562 16.9703 148.137 16.9703C145.957 16.9703 144.416 18.6337 143.995 20.9777C143.915 21.4178 143.87 21.931 143.87 22.44V31.6415H140.793V19.7825V19.7839Z" fill="white"/>
<path d="M124.892 31.6411C125.833 31.6411 126.595 30.8693 126.595 29.9172C126.595 28.9652 125.833 28.1934 124.892 28.1934C123.952 28.1934 123.189 28.9652 123.189 29.9172C123.189 30.8693 123.952 31.6411 124.892 31.6411Z" fill="white"/>
</svg>
